<mxfile host="app.diagrams.net" modified="2024-08-18T10:21:34.156Z" agent="Mozilla/5.0 (Windows NT 10.0; Win64; x64) AppleWebKit/537.36 (KHTML, like Gecko) Chrome/126.0.0.0 Safari/537.36 OPR/112.0.0.0" version="24.4.9" etag="2aL7cQI7_J6ejqJopw1B" type="github">
  <diagram name="Pagina-1" id="LuHOtsQvX8Pe-tRM7gSG">
    <mxGraphModel>
      <root>
        <mxCell id="0" />
        <mxCell id="1" parent="0" />
      </root>
    </mxGraphModel>
  </diagram>
</mxfile>
